<?xml version="1.0" standalone="no"?>
<!DOCTYPE svg PUBLIC "-//W3C//DTD SVG 20010904//EN"
 "http://www.w3.org/TR/2001/REC-SVG-20010904/DTD/svg10.dtd">
<svg version="1.0" xmlns="http://www.w3.org/2000/svg"
 width="50px" height="50px" viewBox="0 0 500.000000 500.000000"
 preserveAspectRatio="xMidYMid meet">

<g transform="translate(0.000000,500.000000) scale(0.100000,-0.100000)"
fill="#000000" stroke="none">
<path d="M2279 4115 c-247 -39 -456 -120 -654 -254 -339 -228 -565 -556 -662
-961 -34 -143 -43 -413 -19 -577 60 -409 286 -786 616 -1030 164 -121 299
-189 491 -246 173 -52 241 -62 454 -61 157 0 208 4 295 23 307 65 563 199 778
405 204 197 336 402 416 649 63 191 71 249 71 492 -1 205 -3 228 -29 340 -137
588 -575 1039 -1148 1186 -187 47 -434 61 -609 34z m508 -36 c316 -61 572
-197 804 -429 186 -185 298 -365 379 -609 60 -178 74 -275 74 -496 0 -158 -4
-207 -22 -291 -64 -295 -197 -553 -391 -757 -276 -289 -604 -449 -1008 -488
-354 -34 -749 79 -1043 299 -310 232 -519 560 -602 946 -30 139 -33 467 -4
596 73 336 215 592 458 826 248 238 568 387 913 424 114 12 321 2 442 -21z"/>
<path d="M2240 3330 c0 -251 2 -290 15 -290 13 0 15 22 15 140 l0 140 104 0
105 0 117 -137 c86 -101 124 -139 143 -141 l26 -4 -26 29 c-14 15 -68 78 -120
138 l-93 110 61 5 c71 6 109 29 135 81 36 68 13 153 -51 196 -32 22 -43 23
-232 23 l-199 0 0 -290z m432 222 c29 -28 33 -39 33 -83 0 -46 -4 -54 -37 -85
l-38 -34 -180 0 -180 0 0 121 0 120 185 -3 185 -3 32 -33z"/>
<path d="M2010 2555 c0 -13 61 -15 490 -15 429 0 490 2 490 15 0 13 -61 15
-490 15 -429 0 -490 -2 -490 -15z"/>
<path d="M2373 1981 c-134 -34 -169 -204 -56 -278 21 -14 55 -19 167 -23 103
-4 149 -10 171 -22 84 -45 76 -178 -12 -214 -39 -17 -238 -19 -280 -3 -40 15
-71 47 -78 80 -8 35 -35 39 -35 5 0 -33 39 -86 80 -107 29 -16 58 -19 171 -19
125 0 139 2 169 23 55 37 75 72 75 132 0 58 -18 91 -69 129 -24 18 -46 22
-174 26 -157 5 -176 11 -206 61 -33 56 -11 135 45 165 25 12 58 15 169 12 130
-3 140 -4 164 -27 14 -13 30 -39 36 -57 15 -45 45 -47 36 -3 -8 42 -41 86 -79
106 -36 19 -238 28 -294 14z"/>
</g>
</svg>
